<?xml version="1.0" standalone="no"?>
<!DOCTYPE svg PUBLIC "-//W3C//DTD SVG 20010904//EN"
 "http://www.w3.org/TR/2001/REC-SVG-20010904/DTD/svg10.dtd">
<svg version="1.0" xmlns="http://www.w3.org/2000/svg"
 width="260.000000pt" height="260.000000pt" viewBox="0 0 260.000000 260.000000"
 preserveAspectRatio="xMidYMid meet">
<metadata>
Created by potrace 1.11, written by Peter Selinger 2001-2013
</metadata>
<g transform="translate(0.000000,260.000000) scale(0.100000,-0.100000)"
fill="#000000" stroke="none">
<path d="M498 2087 c-40 -10 -74 -40 -86 -76 -5 -14 -8 -231 -7 -481 1 -495 0
-485 58 -520 30 -18 52 -20 295 -20 266 0 284 2 323 39 25 24 31 55 32 147 0
55 4 84 11 84 30 -1 53 -14 68 -41 34 -58 144 -74 205 -30 18 13 38 19 58 16
17 -2 30 -4 30 -5 0 -1 50 -2 110 -2 102 -1 227 7 285 19 14 2 36 6 50 8 14 2
25 4 25 5 0 2 41 10 75 14 14 2 28 4 32 5 3 0 13 22 22 47 11 33 13 52 5 65
-6 13 -6 19 0 19 13 0 5 63 -21 160 -11 41 -21 82 -23 90 -2 8 -6 26 -10 41
-6 23 -4 25 34 27 41 3 41 3 42 -35 1 -21 1 -41 0 -45 -3 -19 37 -6 45 15 11
24 11 25 0 80 -10 46 -26 55 -94 51 -52 -3 -54 -2 -67 30 -8 18 -21 38 -29 45
-16 14 -70 29 -121 36 -16 2 -66 10 -110 18 -91 17 -282 12 -315 -8 -9 -5 -33
-9 -137 -20 -28 -3 -64 -10 -80 -16 -15 -6 -35 -12 -43 -14 -8 -2 -22 -6 -31
-10 -14 -5 -16 5 -17 82 0 101 -2 110 -22 136 -36 46 -60 49 -317 51 -134 0
-258 -3 -275 -7z m24 -482 l-3 -345 245 0 c252 0 263 -2 247 -40 -5 -13 -41
-16 -256 -15 l-250 0 -1 365 c-1 201 1 368 3 373 15 27 18 -31 15 -338z m98
333 c0 -9 -67 -5 -76 5 -5 4 11 6 34 5 23 -2 42 -6 42 -10z m40 0 c0 -4 -7 -8
-15 -8 -8 0 -15 4 -15 8 0 5 7 9 15 9 8 0 15 -4 15 -9z m120 1 c0 -3 -25 -6
-55 -5 -30 0 -55 4 -55 8 0 3 25 6 55 5 30 -1 55 -4 55 -8z m120 0 c0 -3 -25
-6 -55 -5 -30 0 -55 4 -55 8 0 3 25 6 55 5 30 -1 55 -4 55 -8z m110 1 c0 -3
-22 -6 -50 -6 -27 0 -50 4 -50 7 0 4 23 7 50 6 28 0 50 -3 50 -7z m700 -64
c19 -3 44 -8 55 -10 11 -3 30 -5 43 -5 12 -1 22 -5 22 -9 0 -5 -19 -6 -42 -3
-24 3 -74 6 -113 6 l-70 0 0 -50 c0 -27 2 -54 5 -60 2 -5 6 -21 7 -35 4 -59
25 -155 34 -161 6 -3 95 -4 200 -2 204 5 192 8 205 -52 14 -66 16 -105 5 -105
-14 0 -15 -37 -1 -45 8 -5 8 -34 0 -55 -2 -3 -2 -8 -1 -12 0 -5 0 -8 -1 -9 -2
0 -23 -2 -48 -5 -25 -3 -52 -8 -60 -11 -18 -7 -35 -10 -115 -18 -32 -3 -70 -7
-84 -10 -34 -6 -125 -7 -253 -2 -82 3 -108 1 -112 -9 -3 -7 -22 -18 -43 -24
-54 -16 -113 4 -132 46 -10 24 -22 33 -55 40 l-41 9 -1 156 -1 155 36 3 c19 1
38 6 42 12 6 10 3 76 -7 136 -4 30 -6 31 -34 23 -34 -10 -50 5 -29 25 20 17
134 47 198 51 29 2 62 6 71 9 25 8 57 14 105 21 22 4 41 7 42 8 4 4 142 -2
173 -8z m95 -50 c44 -4 89 -9 100 -11 11 -2 25 -4 32 -4 13 -1 32 -31 38 -59
2 -9 14 -52 28 -94 14 -43 24 -79 23 -79 -1 -2 -59 -4 -255 -10 -86 -3 -105
-1 -107 11 -7 37 -15 80 -25 140 -5 36 -12 75 -15 87 -3 18 1 22 23 25 30 4
34 3 158 -6z m-638 -147 l4 -60 -28 3 c-27 3 -28 6 -30 60 -1 51 0 57 20 60
12 2 24 3 26 1 2 -2 6 -30 8 -64z m953 51 c-20 -13 -87 -13 -95 0 -4 6 16 10
52 10 41 0 54 -3 43 -10z m-1318 -587 c29 -35 -1 -92 -48 -93 -18 0 -64 33
-64 46 0 11 23 49 34 56 17 11 66 5 78 -9z"/>
<path d="M1510 1840 c0 -3 -17 -7 -37 -8 -43 -3 -51 -13 -47 -50 10 -86 12
-152 6 -152 -6 0 -12 56 -16 150 -1 42 -11 51 -43 39 -12 -5 -23 -6 -23 -3 0
2 -9 0 -21 -6 -11 -6 -30 -13 -42 -16 -12 -2 -34 -9 -49 -15 -27 -11 -27 -12
-23 -91 1 -44 6 -82 9 -86 12 -11 190 -2 198 11 6 9 10 9 16 -1 5 -7 48 -24
96 -37 l88 -24 -6 37 c-13 88 -19 129 -21 158 -1 17 -5 36 -9 42 -3 6 -3 17 0
25 3 8 -1 19 -8 23 -15 10 -68 13 -68 4z m50 -27 c0 -5 5 -35 10 -68 6 -33 12
-84 15 -114 5 -48 4 -53 -12 -46 -10 4 -37 12 -60 18 -49 12 -50 14 -59 124
l-6 82 34 4 c60 7 78 7 78 0z m-169 -30 c0 -10 2 -50 5 -89 l4 -70 -80 -2 -80
-2 0 27 c0 16 -1 45 -3 66 -3 29 1 41 15 48 10 5 18 8 18 6 0 -2 24 4 53 14
65 23 67 23 68 2z"/>
<path d="M1236 1381 c-37 -41 -22 -142 23 -154 20 -5 59 23 62 45 7 43 2 77
-14 101 -21 31 -47 35 -71 8z m62 -69 c-4 -61 -43 -87 -53 -35 -2 10 -4 18 -5
18 -1 0 -3 10 -4 22 -2 13 6 32 17 43 28 31 49 9 45 -48z"/>
<path d="M1643 1374 c-11 -29 12 -37 95 -35 38 1 42 3 42 26 0 24 -2 25 -65
25 -50 0 -67 -4 -72 -16z m87 -9 c0 -7 -30 -13 -34 -7 -3 4 4 9 15 9 10 1 19
0 19 -2z"/>
<path d="M1004 886 c-3 -8 -4 -27 -2 -43 3 -26 6 -28 56 -31 l52 -3 0 44 0 44
-50 2 c-35 0 -52 -4 -56 -13z"/>
<path d="M1200 836 c-5 -5 -10 -18 -10 -27 0 -10 -9 -21 -20 -24 -14 -5 -20
-15 -20 -37 0 -21 6 -31 20 -35 15 -4 20 -14 21 -42 0 -20 1 -63 2 -96 l2 -60
42 -6 c24 -3 47 -3 52 1 6 3 11 48 13 100 2 70 6 94 16 92 6 -1 12 3 12 9 0 5
5 7 10 4 6 -4 10 8 10 29 0 21 -5 37 -12 38 -7 0 -20 1 -28 2 -8 1 -17 14 -20
31 -5 26 -9 29 -42 30 -21 1 -42 -3 -48 -9z"/>
<path d="M1694 788 c-3 -4 -9 -6 -13 -4 -4 3 -17 -2 -29 -10 -16 -11 -19 -20
-13 -37 7 -18 16 -22 51 -22 26 0 45 -5 47 -12 3 -9 -9 -13 -42 -13 -81 0
-120 -64 -83 -137 20 -40 102 -58 149 -33 9 5 31 3 55 -5 44 -15 58 -8 69 35
4 19 0 33 -17 51 -19 20 -23 36 -23 77 2 71 -22 100 -93 111 -29 4 -55 4 -58
-1z m40 -197 c-15 -17 -19 -15 -28 16 -5 16 -2 22 11 25 23 5 35 -23 17 -41z"/>
<path d="M2070 791 c0 -3 -16 -11 -35 -17 -28 -9 -37 -8 -46 2 -14 17 -53 18
-66 2 -21 -27 -22 -59 -2 -77 21 -19 28 -68 14 -91 -5 -8 -4 -11 1 -7 6 3 9
-14 8 -42 l-2 -47 49 -3 c27 -1 49 2 50 6 1 4 2 44 4 88 3 101 1 95 25 95 12
0 20 -7 21 -17 0 -10 2 -52 2 -93 l2 -75 44 -3 c26 -2 47 1 51 8 4 7 6 59 5
117 -1 90 -4 107 -22 125 -19 19 -103 43 -103 29z"/>
<path d="M205 774 c-94 -47 -99 -194 -9 -246 62 -36 187 -20 179 23 -7 34 -14
38 -70 32 -47 -5 -55 -3 -55 11 0 12 7 17 23 16 71 -6 117 25 117 80 0 81
-101 127 -185 84z m85 -89 c0 -19 -40 -26 -47 -8 -7 17 14 34 34 26 7 -3 13
-11 13 -18z"/>
<path d="M473 780 c-23 -9 -29 -34 -15 -56 4 -7 26 -11 49 -10 46 1 65 -17 23
-22 -59 -6 -97 -22 -108 -47 -25 -55 -5 -106 51 -130 28 -12 47 -10 115 10 12
4 22 3 22 -2 0 -14 72 -15 81 -1 17 26 9 64 -18 88 -15 13 -23 25 -17 27 14 5
2 91 -16 120 -8 12 -23 24 -35 27 -30 9 -107 6 -132 -4z m83 -165 c4 -24 -16
-38 -33 -23 -9 7 -10 15 -2 30 12 23 31 19 35 -7z"/>
<path d="M739 779 c-6 -3 -9 -23 -7 -45 l3 -38 50 3 50 3 -35 -38 c-19 -21
-37 -41 -40 -44 -39 -41 -42 -48 -26 -78 l15 -29 101 -1 c55 0 101 3 101 6 7
33 5 73 -4 79 -6 4 -32 6 -57 5 l-45 -2 23 19 c12 11 22 22 22 26 0 3 9 16 21
28 42 44 51 64 39 86 -6 12 -16 22 -23 22 -44 5 -180 3 -188 -2z"/>
<path d="M1013 783 c-10 -4 -13 -40 -13 -139 l0 -134 55 0 55 0 1 88 c0 48 1
106 1 130 0 24 -3 46 -7 50 -8 8 -73 11 -92 5z"/>
<path d="M1374 768 c-5 -13 -9 -27 -9 -33 -2 -17 15 -45 28 -45 9 0 12 -24 11
-84 -1 -46 1 -88 5 -93 3 -4 27 -8 54 -8 l47 0 0 87 c0 88 7 105 41 100 21 -4
43 66 27 85 -18 22 -80 10 -99 -20 -4 -5 -16 0 -28 12 -28 28 -67 28 -77 -1z"/>
<path d="M2288 775 c-36 -20 -50 -70 -31 -107 7 -15 31 -37 53 -48 22 -11 40
-25 40 -30 0 -10 -45 -4 -72 11 -15 8 -23 7 -33 -7 -7 -10 -11 -25 -10 -33 2
-9 4 -19 4 -22 2 -11 54 -29 91 -30 83 -5 140 32 140 91 0 33 -24 61 -73 84
-39 18 -43 38 -5 31 11 -3 23 -6 25 -9 9 -8 43 29 43 47 0 9 -10 21 -22 26
-38 14 -122 11 -150 -4z"/>
</g>
</svg>
